<svg width="33" height="17" viewBox="0 0 33 17" fill="none" xmlns="http://www.w3.org/2000/svg">
<path d="M31.5713 7.61629C29.2179 5.26284 26.8595 2.9045 24.5061 0.551042C24.4279 0.472919 24.3449 0.389914 24.2522 0.321556C23.7493 -0.0641766 23.0315 0.0871867 22.7239 0.643813C22.47 1.0979 22.5628 1.54711 22.9973 1.98167C24.7404 3.72967 26.4884 5.47279 28.2364 7.2208C28.2999 7.28427 28.3634 7.35263 28.461 7.46005H28.1095C26.9474 7.46005 25.7902 7.46005 24.6281 7.46005C18.0219 7.46005 11.4107 7.46005 4.80442 7.46005C3.63257 7.46005 2.45584 7.46005 1.284 7.46005C1.18634 7.46005 1.08869 7.46005 0.991035 7.46005C0.551592 7.47958 0.185391 7.76277 0.0486754 8.18269C-0.0831572 8.59283 0.0584408 9.04204 0.405112 9.31547C0.634598 9.49613 0.898263 9.53031 1.18634 9.53031C2.72439 9.53031 4.26244 9.53031 5.80537 9.53031C12.3286 9.53031 18.8519 9.53031 25.3801 9.53031C26.2931 9.53031 27.2013 9.53031 28.1144 9.53031H28.4708C28.3634 9.64261 28.3048 9.70609 28.2413 9.76956C26.5129 11.498 24.7844 13.2265 23.0559 14.9599C22.968 15.0477 22.885 15.1308 22.8118 15.2284C22.426 15.7313 22.5823 16.4491 23.1389 16.7567C23.593 17.0057 24.0422 16.9129 24.4768 16.4784C26.8449 14.1103 29.2081 11.747 31.5762 9.37895C32.1817 8.77349 32.1817 8.22175 31.5713 7.61629Z" fill="white"/>
</svg>
