<svg width="418" height="6" viewBox="0 0 418 6" fill="none" xmlns="http://www.w3.org/2000/svg">
<path d="M417.728 4.16222L410.377 1.5891L403.147 4.16222L395.796 1.5891L388.934 4.0397H388.811L381.582 1.46657L374.23 4.0397L367.001 1.46657L359.772 4.0397L352.42 1.46657L345.191 4.0397L337.839 1.46657L330.977 3.91717L330.855 4.0397L323.625 1.34404L316.274 4.0397L309.044 1.34404L301.693 4.0397L294.463 1.34404L287.112 4.0397L279.882 1.34404L272.898 3.91717L265.546 1.22151L258.317 3.91717L251.088 1.22151L243.736 3.91717L236.507 1.22151L229.155 3.91717L221.926 1.22151L214.941 3.79464L207.59 1.09898L200.36 3.79464L193.009 1.09898L185.779 3.79464L178.428 1.09898L171.198 3.79464L163.847 1.09898L156.985 3.67211H156.862L149.633 0.976448L142.281 3.67211L135.052 0.976448L127.823 3.67211L120.471 0.976448L113.242 3.67211L105.89 0.976448L99.0282 3.54958H98.9057L91.6764 0.853918L84.3246 3.54958L77.0954 0.853918L69.7436 3.54958L62.5143 0.853918L55.1625 3.54958L47.9333 0.853918L40.9491 3.42705L33.5973 0.853918L26.368 3.42705L19.1387 0.853918L11.7869 3.42705L4.55769 0.853918L-2.7941 3.42705L-10.0234 0.853918L-17.0076 3.30452L-24.3594 0.731388L-31.5886 3.30452L-38.9404 0.731388L-46.1697 3.30452L-53.5215 0.731388L-60.7507 3.30452L-67.98 0.731388L-74.9642 3.18199L-75.0867 3.30452L-82.316 0.608858L-89.5453 3.30452L-96.897 0.608858L-104.126 3.30452L-111.478 0.608858L-118.707 3.30452L-126.059 0.608858L-132.921 3.18199V3.05946L-133.043 3.18199L-140.273 0.486328L-147.624 3.18199L-154.854 0.486328L-162.205 3.18199L-169.435 0.486328L-176.664 3.18199L-184.016 0.486328L-191 3.05946V4.77487L-190.632 4.65234L-184.016 2.20175L-177.277 4.65234L-176.664 4.8974L-176.174 4.65234L-169.435 2.20175L-162.696 4.65234L-162.205 4.8974L-161.593 4.65234L-154.854 2.20175L-148.115 4.65234L-147.624 4.8974L-147.012 4.65234L-140.273 2.20175L-133.533 4.65234L-133.043 4.8974L-132.676 4.77487L-126.059 2.32428L-119.32 4.77487L-118.707 5.01993L-118.217 4.77487L-111.478 2.32428L-104.739 4.77487L-104.126 5.01993L-103.636 4.77487L-96.897 2.32428L-90.1579 4.77487L-89.5453 5.01993L-89.0551 4.77487L-82.316 2.32428L-75.5769 4.77487L-75.0867 5.01993L-74.7191 4.8974L-67.98 2.44681L-61.3634 4.8974L-60.7507 5.14246L-60.1381 4.8974L-53.5215 2.44681L-46.7823 4.8974L-46.1697 5.14246L-45.557 4.8974L-38.9404 2.44681L-32.2013 4.8974L-31.5886 5.14246L-31.0985 4.8974L-24.3594 2.44681L-17.6202 4.8974L-17.0076 5.14246L-16.7625 5.01993L-10.0234 2.56934L-3.28424 5.01993L-2.7941 5.26499L-2.18146 5.01993L4.55769 2.56934L11.1743 5.01993L11.7869 5.26499L12.3996 5.01993L19.1387 2.56934L25.7553 5.01993L26.368 5.26499L26.9806 5.01993L33.5973 2.56934L40.3364 5.01993L40.9491 5.26499L41.3167 5.14246L47.9333 2.69187L54.6724 5.14246L55.1625 5.38752L55.7752 5.14246L62.5143 2.69187L69.2534 5.14246L69.7436 5.38752L70.3562 5.14246L77.0954 2.69187L83.8345 5.14246L84.3246 5.38752L84.9373 5.14246L91.6764 2.69187L98.2931 5.14246L98.9057 5.38752L99.2733 5.26499L105.89 2.8144L112.629 5.26499L113.242 5.38752L113.732 5.26499L120.471 2.8144L127.21 5.26499L127.823 5.38752L128.313 5.26499L135.052 2.8144L141.791 5.26499L142.281 5.38752L142.894 5.26499L149.633 2.8144L156.372 5.26499L156.862 5.38752V5.51005L157.23 5.38752L163.847 2.93693L170.586 5.38752L171.198 5.51005L171.811 5.38752L178.428 2.93693L185.167 5.38752L185.779 5.51005L186.269 5.38752L193.009 2.93693L199.748 5.38752L200.36 5.51005L200.851 5.38752L207.59 2.93693L214.329 5.38752L214.941 5.51005L215.187 5.38752L221.926 3.05946L228.665 5.51005L229.155 5.63258L229.768 5.51005L236.507 3.05946L243.123 5.51005L243.736 5.63258L244.349 5.51005L251.088 3.05946L257.704 5.51005L258.317 5.63258L258.93 5.51005L265.546 3.05946L272.285 5.51005L272.898 5.63258L273.266 5.51005L279.882 3.05946L286.621 5.51005L287.112 5.75511L287.724 5.51005L294.463 3.05946L301.203 5.51005L301.693 5.75511L302.305 5.51005L309.044 3.05946L315.784 5.51005L316.274 5.75511L316.886 5.51005L323.625 3.05946L330.242 5.51005L330.855 5.75511L331.222 5.63258L337.839 3.18199L344.578 5.63258L345.191 5.87764L345.681 5.63258L352.42 3.18199L359.159 5.63258L359.772 5.87764L360.262 5.63258L367.001 3.18199L373.74 5.63258L374.23 5.87764L374.843 5.63258L381.582 3.18199L388.321 5.63258L388.811 5.87764L389.179 5.75511L395.796 3.30452L402.535 5.75511L403.147 6.00017L403.76 5.75511L410.377 3.30452L417.116 5.75511L417.728 6.00017L417.974 5.87764V4.0397L417.728 4.16222Z" fill="white"/>
</svg>
