<svg width="937" height="7" viewBox="0 0 937 7" fill="#D6C4AB" xmlns="http://www.w3.org/2000/svg">
<path d="M937 4.29029L929.575 1.59354L922.274 4.29029L914.849 1.59354L907.549 4.29029L900.248 1.59354L892.823 4.29029L885.522 1.59354L878.468 4.16771H878.345L871.044 1.47096L863.743 4.16771L856.318 1.47096L849.017 4.16771L841.592 1.47096L834.291 4.16771L826.867 1.47096L819.937 4.04513H819.813L812.512 1.34838L805.087 4.04513L797.786 1.34838L790.362 4.04513L783.061 1.34838L775.76 4.04513L768.335 1.34838L761.405 3.92255H761.282L753.981 1.2258L746.556 3.92255L739.255 1.2258L731.83 3.92255L724.529 1.2258L717.104 3.92255L709.803 1.2258L702.75 3.79997L695.325 1.2258L688.024 3.79997L680.6 1.2258L673.299 3.79997L665.998 1.2258L658.573 3.79997L651.272 1.2258L644.218 3.67739L636.794 1.10322L629.493 3.67739L622.068 1.10322L614.767 3.67739L607.342 1.10322L600.041 3.67739L592.617 1.10322L585.687 3.55481H585.563L578.262 0.980638L570.837 3.55481L563.536 0.980638L556.235 3.55481L548.811 0.980638L541.51 3.55481L534.085 0.980638L527.155 3.43223L527.031 3.55481L519.731 0.858059L512.306 3.55481L505.005 0.858059L497.58 3.55481L490.279 0.858059L482.854 3.55481L475.553 0.858059L468.5 3.43223L461.075 0.735479L453.774 3.43223L446.473 0.735479L439.049 3.43223L431.748 0.735479L424.323 3.43223L417.022 0.735479L409.968 3.30965L402.544 0.612899L395.243 3.30965L387.818 0.612899L380.517 3.30965L373.092 0.612899L365.791 3.30965L358.367 0.612899L351.437 3.18707H351.313L344.012 0.490319L336.587 3.18707L329.286 0.490319L321.985 3.18707L314.561 0.490319L307.26 3.18707L299.835 0.490319L292.905 3.0645H292.782L285.481 0.367739L278.056 3.0645L270.755 0.367739L263.33 3.0645L256.029 0.367739L248.604 3.0645L241.303 0.367739L234.25 2.94192L226.825 0.367739L219.524 2.94192L212.223 0.367739L204.799 2.94192L197.498 0.367739L190.073 2.94192L182.772 0.367739L175.718 2.81934L168.294 0.24516L160.993 2.81934L153.568 0.24516L146.267 2.81934L138.842 0.24516L131.541 2.81934L124.24 0.24516L117.187 2.69676L117.063 2.81934L109.762 0.12258L102.461 2.81934L95.0364 0.12258L87.7355 2.81934L80.3107 0.12258L73.0098 2.81934L65.585 0.12258L58.6553 2.69676V2.57418L58.5316 2.69676L51.2306 0L43.8059 2.69676L36.5049 0L29.0802 2.69676L21.7792 0L14.4782 2.69676L7.05349 0L0 2.57418V4.29029L0.371236 4.16771L7.05349 1.71612L13.8595 4.16771L14.4782 4.41287L14.9732 4.16771L21.7792 1.71612L28.5852 4.16771L29.0802 4.41287L29.6989 4.16771L36.5049 1.71612L43.3109 4.16771L43.8059 4.41287L44.4246 4.16771L51.2306 1.71612L58.0366 4.16771L58.5316 4.41287L58.9028 4.29029L65.585 1.8387L72.391 4.29029L73.0098 4.53545L73.5048 4.29029L80.3107 1.8387L87.1167 4.29029L87.7355 4.53545L88.2305 4.29029L95.0364 1.8387L101.842 4.29029L102.461 4.53545L102.956 4.29029L109.762 1.8387L116.568 4.29029L117.063 4.53545L117.434 4.41287L124.24 1.96128L130.923 4.41287L131.541 4.65803L132.16 4.41287L138.842 1.96128L145.648 4.41287L146.267 4.65803L146.886 4.41287L153.568 1.96128L160.374 4.41287L160.993 4.65803L161.488 4.41287L168.294 1.96128L175.1 4.41287L175.718 4.65803L175.966 4.53545L182.772 2.08386L189.578 4.53545L190.073 4.78061L190.692 4.53545L197.498 2.08386L204.18 4.53545L204.799 4.78061L205.417 4.53545L212.223 2.08386L218.906 4.53545L219.524 4.78061L220.143 4.53545L226.825 2.08386L233.631 4.53545L234.25 4.78061L234.621 4.65803L241.303 2.20644L248.109 4.65803L248.604 4.90319L249.223 4.65803L256.029 2.20644L262.835 4.65803L263.33 4.90319L263.949 4.65803L270.755 2.20644L277.561 4.65803L278.056 4.90319L278.675 4.65803L285.481 2.20644L292.163 4.65803L292.782 4.90319L293.153 4.78061L299.835 2.32902L306.641 4.78061L307.26 4.90319L307.755 4.78061L314.561 2.32902L321.367 4.78061L321.985 4.90319L322.48 4.78061L329.286 2.32902L336.092 4.78061L336.587 4.90319L337.206 4.78061L344.012 2.32902L350.818 4.78061L351.313 4.90319V5.02577L351.684 4.90319L358.367 2.4516L365.173 4.90319L365.791 5.02577L366.41 4.90319L373.092 2.4516L379.898 4.90319L380.517 5.02577L381.012 4.90319L387.818 2.4516L394.624 4.90319L395.243 5.02577L395.738 4.90319L402.544 2.4516L409.35 4.90319L409.968 5.02577L410.216 4.90319L417.022 2.57418L423.828 5.02577L424.323 5.14835L424.942 5.02577L431.748 2.57418L438.43 5.02577L439.049 5.14835L439.667 5.02577L446.473 2.57418L453.156 5.02577L453.774 5.14835L454.393 5.02577L461.075 2.57418L467.881 5.02577L468.5 5.14835L468.871 5.02577L475.553 2.57418L482.359 5.02577L482.854 5.27093L483.473 5.02577L490.279 2.57418L497.085 5.02577L497.58 5.27093L498.199 5.02577L505.005 2.57418L511.811 5.02577L512.306 5.27093L512.925 5.02577L519.731 2.57418L526.413 5.02577L527.031 5.27093L527.403 5.14835L534.085 2.69676L540.891 5.14835L541.51 5.39351L542.005 5.14835L548.811 2.69676L555.617 5.14835L556.235 5.39351L556.73 5.14835L563.536 2.69676L570.342 5.14835L570.837 5.39351L571.456 5.14835L578.262 2.69676L585.068 5.14835L585.563 5.39351L585.934 5.27093L592.617 2.81934L599.423 5.27093L600.041 5.51609L600.66 5.27093L607.342 2.81934L614.148 5.27093L614.767 5.51609L615.262 5.27093L622.068 2.81934L628.874 5.27093L629.493 5.51609L629.988 5.27093L636.794 2.81934L643.6 5.27093L644.095 5.51609H644.218L644.466 5.39351L651.272 2.94192L657.954 5.39351L658.573 5.63867L659.192 5.39351L665.998 2.94192L672.68 5.39351L673.299 5.63867L673.917 5.39351L680.6 2.94192L687.406 5.39351L688.024 5.63867L688.643 5.39351L695.325 2.94192L702.131 5.39351L702.75 5.63867L703.121 5.51609L709.803 3.0645L716.609 5.51609L717.104 5.76125L717.723 5.51609L724.529 3.0645L731.335 5.51609L731.83 5.76125L732.449 5.51609L739.255 3.0645L745.937 5.51609L746.556 5.76125L747.174 5.51609L753.981 3.0645L760.663 5.51609L761.282 5.76125L761.653 5.63867L768.335 3.18707L775.141 5.63867L775.76 5.76125L776.255 5.63867L783.061 3.18707L789.867 5.63867L790.362 5.76125L790.98 5.63867L797.786 3.18707L804.592 5.63867L805.087 5.76125L805.706 5.63867L812.512 3.18707L819.318 5.63867L819.813 5.76125L820.184 5.63867L826.867 3.30965L833.673 5.76125L834.291 5.88383L834.786 5.76125L841.592 3.30965L848.398 5.76125L849.017 5.88383L849.512 5.76125L856.318 3.30965L863.124 5.76125L863.743 5.88383L864.238 5.76125L871.044 3.30965L877.85 5.76125L878.345 5.88383H878.468L878.716 5.76125L885.522 3.30965L892.204 5.76125L892.823 6.00641L893.442 5.76125L900.248 3.30965L906.93 5.76125L907.549 6.00641L908.167 5.76125L914.849 3.30965L921.656 5.76125L922.274 6.00641L922.769 5.76125L929.575 3.30965L936.381 5.76125L937 6.00641V4.29029Z" fill="#414042"/>
</svg>
